***************************************************************

[IMG]http://i1265.photobucket.com/albums/jj515/screensimagestore/sig.png[/IMG]

***************************************************************

[IMG]http://i1265.photobucket.com/albums/jj515/screensimagestore/fortressofwar.jpg[/IMG]

***************************************************************

FILM TITLE: Fortress of War (2010) Brestskaya krepost (original title)

***************************************************************

Genre:  Action | Drama | War   

Release:  4 November 2010 (Belarus)

Director: Aleksandr Kott

Writer: Igor Ugolnikov (story), Vladimir Yeryomin

Stars: Evgeniy Tsyganov, Pavel Derevyanko and Andrey Merzlikin

Country: Belarus | Russia

Language: Russian | Ukrainian | Belarusian

Plot:
A war drama set during the Nazi invasion of the Soviet Union in June 1941, 
in which Russian troops held on to a border stronghold for nine days.

IMDB Rating: 7.5/10 from 2,422 users 
 
http://www.imdb.com/title/tt1343703/ 


****************************************************************

[IMG]http://i1265.photobucket.com/albums/jj515/screensimagestore/fortress1.jpg[/IMG]
[IMG]http://i1265.photobucket.com/albums/jj515/screensimagestore/fortress2.jpg[/IMG]
[IMG]http://i1265.photobucket.com/albums/jj515/screensimagestore/fortress3.jpg[/IMG]
[IMG]http://i1265.photobucket.com/albums/jj515/screensimagestore/fortress4.jpg[/IMG]

****************************************************************

General
Unique ID                        : 227572500455867689743692150642559893604 (0xAB34DE8B688CCE2DB604106437B34064)
Complete name                    : Fortress Of War 2010 720p BDRip x264 ac3 eng-sub (mkv) [GREYSHADOW].mkv
Format                           : Matroska
Format version                   : Version 2
File size                        : 3.81 GiB
Duration                         : 2h 18mn
Overall bit rate                 : 3 943 Kbps
Encoded date                     : UTC 2012-02-02 20:06:59
Writing application              : mkvmerge v5.2.1 ('A Far Off Place') built on Jan  2 2012 23:21:10
Writing library                  : libebml v1.2.3 + libmatroska v1.3.0

Video
ID                               : 1
Format                           : AVC
Format/Info                      : Advanced Video Codec
Format profile                   : High@L4.1
Format settings, CABAC           : Yes
Format settings, ReFrames        : 12 frames
Muxing mode                      : Header stripping
Codec ID                         : V_MPEG4/ISO/AVC
Duration                         : 2h 18mn
Bit rate                         : 3 300 Kbps
Width                            : 1 280 pixels
Height                           : 544 pixels
Display aspect ratio             : 2.35:1
Frame rate                       : 24.000 fps
Color space                      : YUV
Chroma subsampling               : 4:2:0
Bit depth                        : 8 bits
Scan type                        : Progressive
Bits/(Pixel*Frame)               : 0.197
Stream size                      : 3.11 GiB (82%)
Title                            : AVC MPEG4 Video
Writing library                  : x264 core 120 r2146 bcd41db
Language                         : Russian
Color primaries                  : BT.709-5, BT.1361, IEC 61966-2-4, SMPTE RP177
Transfer characteristics         : BT.709-5, BT.1361
Matrix coefficients              : BT.709-5, BT.1361, IEC 61966-2-4 709, SMPTE RP177

Audio
ID                               : 2
Format                           : AC-3
Format/Info                      : Audio Coding 3
Mode extension                   : CM (complete main)
Muxing mode                      : Header stripping
Codec ID                         : A_AC3
Duration                         : 2h 18mn
Bit rate mode                    : Constant
Bit rate                         : 640 Kbps
Channel(s)                       : 6 channels
Channel positions                : Front: L C R, Side: L R, LFE
Sampling rate                    : 48.0 KHz
Bit depth                        : 16 bits
Compression mode                 : Lossy
Stream size                      : 633 MiB (16%)
Title                            : Russian AC3 5.1 640kbps Audio
Language                         : Russian

Text
ID                               : 3
Format                           : UTF-8
Codec ID                         : S_TEXT/UTF8
Codec ID/Info                    : UTF-8 Plain Text
Title                            : English Sub sup to srt edited by greyshadow
Language                         : English

****************************************************************

Video Source: The Brest Fortress 2010 Blu-ray 1080p AVC DTS 5.1-TTG

Thanks: PaLmeTTo (wiki-allsubs for subtitle)

****************************************************************

I provide a small sample, so please download this to check your 
compatibility first if you are unsure.

****************************************************************

Hash: 00195533B56AFBE917AC11A46AB3BBC53E44886E

Trackers:
udp://tracker.1337x.org:80/announce
udp://tracker.openbittorrent.com:80/announce

****************************************************************